<?xml version="1.0" encoding="UTF-8"?>
<svg xmlns="http://www.w3.org/2000/svg" xmlns:xlink="http://www.w3.org/1999/xlink" width="1600px" height="1040px" viewBox="0 0 1600 1040" version="1.1">
<defs>
<filter id="alpha" filterUnits="objectBoundingBox" x="0%" y="0%" width="100%" height="100%">
  <feColorMatrix type="matrix" in="SourceGraphic" values="0 0 0 0 1 0 0 0 0 1 0 0 0 0 1 0 0 0 1 0"/>
</filter>
<mask id="mask0">
  <g filter="url(#alpha)">
<rect x="0" y="0" width="1600" height="1040" style="fill:rgb(0%,0%,0%);fill-opacity:0.101961;stroke:none;"/>
  </g>
</mask>
<clipPath id="clip1">
  <rect x="0" y="0" width="1600" height="1040"/>
</clipPath>
<g id="surface5" clip-path="url(#clip1)">
<path style=" stroke:none;fill-rule:nonzero;fill:rgb(42.352941%,38.823529%,100%);fill-opacity:1;" d="M 90.09375 533.84375 C 94.589844 573.921875 123.292969 610.203125 140.804688 648.375 C 165.582031 702.582031 167.917969 761.628906 147.480469 816.957031 C 143.308594 828.332031 138.167969 839.742188 138.167969 851.386719 C 138.167969 891.539062 195.945312 918.191406 248.441406 935.917969 C 381.882812 980.769531 521.058594 1014.0625 663.542969 1035.214844 C 710.132812 1042.183594 768.328125 1045.1875 797.8125 1018.984375 C 811.964844 1006.402344 815.386719 989.972656 825.777344 975.855469 C 852.273438 939.847656 916.753906 925.859375 974.636719 917.847656 C 1044.414062 908.191406 1114.847656 901.773438 1185.574219 898.625 C 1256.773438 895.457031 1337.613281 892.691406 1384.800781 855.683594 C 1414.792969 832.15625 1423.519531 799.683594 1424.71875 769.019531 C 1428.632812 668.414062 1367.917969 559.546875 1445.847656 472.417969 C 1478.523438 435.875 1531.875 409.183594 1564.3125 372.535156 C 1611.261719 319.433594 1607.210938 251.984375 1575.421875 195.390625 C 1543.632812 138.796875 1487.324219 90.679688 1431.828125 43.523438 C 1413.472656 27.933594 1393.890625 11.71875 1366.328125 4.488281 C 1337.640625 -3.039062 1305.117188 0.414062 1274.363281 3.976562 C 1134.457031 20.148438 989.242188 37.765625 871.902344 93.304688 C 813.628906 120.882812 764.957031 156.652344 712.953125 189.550781 C 600.652344 260.628906 470.554688 326.28125 322.265625 354.347656 C 201.792969 377.15625 79.265625 438.664062 90.09375 533.84375 Z M 90.09375 533.84375 "/>
</g>
<linearGradient id="linear0" gradientUnits="userSpaceOnUse" x1="660.62" y1="785.23" x2="660.62" y2="108.23" gradientTransform="matrix(1.491041,0.126158,-0.159346,1.180493,-22.417994,-92.43653)">
<stop offset="0" style="stop-color:rgb(50.196078%,50.196078%,50.196078%);stop-opacity:0.25098;"/>
<stop offset="0.54" style="stop-color:rgb(50.196078%,50.196078%,50.196078%);stop-opacity:0.121569;"/>
<stop offset="1" style="stop-color:rgb(50.196078%,50.196078%,50.196078%);stop-opacity:0.101961;"/>
</linearGradient>
<mask id="mask1">
  <g filter="url(#alpha)">
<rect x="0" y="0" width="1600" height="1040" style="fill:rgb(0%,0%,0%);fill-opacity:0.101961;stroke:none;"/>
  </g>
</mask>
<clipPath id="clip2">
  <rect x="0" y="0" width="1600" height="1040"/>
</clipPath>
<g id="surface8" clip-path="url(#clip2)">
<path style=" stroke:none;fill-rule:nonzero;fill:rgb(0%,0%,0%);fill-opacity:1;" d="M 877.902344 601.679688 C 876.097656 600.839844 874.105469 600.277344 872.039062 600.03125 C 832.316406 595.757812 723.34375 669.480469 723.34375 669.480469 L 731.125 825.136719 C 724.035156 831.644531 714.886719 834.125 705.632812 834.410156 C 719.683594 837 735.953125 836.785156 747.125 826.492188 L 739.285156 670.800781 C 739.285156 670.800781 832.464844 607.792969 877.902344 601.679688 Z M 877.902344 601.679688 "/>
<path style=" stroke:none;fill-rule:nonzero;fill:rgb(0%,0%,0%);fill-opacity:1;" d="M 1110.417969 855.386719 C 1106.429688 842.328125 1043.480469 745.808594 1033.34375 744.039062 C 1023.207031 742.269531 1025.246094 599.328125 1025.246094 599.328125 L 1039.96875 490.285156 L 1024.03125 488.929688 L 1009.304688 597.976562 C 1009.304688 597.976562 1007.265625 740.917969 1017.402344 742.6875 C 1027.539062 744.453125 1090.488281 840.941406 1094.476562 854.035156 C 1097.175781 862.902344 1071.984375 867.734375 1055.324219 869.929688 L 1057.410156 872.78125 C 1057.410156 872.78125 1114.40625 868.484375 1110.417969 855.386719 Z M 1110.417969 855.386719 "/>
</g>
<mask id="mask2">
  <g filter="url(#alpha)">
<rect x="0" y="0" width="1600" height="1040" style="fill:rgb(0%,0%,0%);fill-opacity:0.0509804;stroke:none;"/>
  </g>
</mask>
<clipPath id="clip3">
  <rect x="0" y="0" width="1600" height="1040"/>
</clipPath>
<g id="surface11" clip-path="url(#clip3)">
<path style=" stroke:none;fill-rule:nonzero;fill:rgb(0%,0%,0%);fill-opacity:1;" d="M 965.277344 276.132812 C 965.277344 276.132812 927.25 292.96875 919.753906 331.53125 C 912.253906 370.089844 906.09375 330.34375 906.09375 330.34375 C 906.09375 330.34375 884.304688 346.726562 877.601562 345.253906 C 870.898438 343.78125 872.082031 403.117188 907.90625 410.71875 C 943.730469 418.316406 972.027344 294 972.027344 294 Z M 965.277344 276.132812 "/>
</g>
<mask id="mask3">
  <g filter="url(#alpha)">
<rect x="0" y="0" width="1600" height="1040" style="fill:rgb(0%,0%,0%);fill-opacity:0.101961;stroke:none;"/>
  </g>
</mask>
<clipPath id="clip4">
  <rect x="0" y="0" width="1600" height="1040"/>
</clipPath>
<g id="surface14" clip-path="url(#clip4)">
<path style=" stroke:none;fill-rule:nonzero;fill:rgb(0%,0%,0%);fill-opacity:1;" d="M 1102.035156 243.960938 C 1096.636719 250.441406 1096.414062 257.792969 1099.035156 265.105469 C 1073.898438 267.703125 1049.242188 258.109375 1036.476562 240.765625 C 1037.664062 235.835938 1038.457031 230.851562 1038.84375 225.84375 C 1038.84375 225.84375 1122.640625 219.265625 1102.035156 243.960938 Z M 1102.035156 243.960938 "/>
</g>
<mask id="mask4">
  <g filter="url(#alpha)">
<rect x="0" y="0" width="1600" height="1040" style="fill:rgb(0%,0%,0%);fill-opacity:0.101961;stroke:none;"/>
  </g>
</mask>
<clipPath id="clip5">
  <rect x="0" y="0" width="1600" height="1040"/>
</clipPath>
<g id="surface17" clip-path="url(#clip5)">
<path style=" stroke:none;fill-rule:nonzero;fill:rgb(0%,0%,0%);fill-opacity:1;" d="M 1037.707031 490.09375 L 1035.546875 506.039062 C 1017.207031 502.15625 891.394531 476.359375 864.765625 491.863281 C 863.503906 492.613281 862.167969 493.28125 860.777344 493.871094 C 865.160156 488.257812 868.757812 482.289062 871.511719 476.0625 Z M 1037.707031 490.09375 "/>
</g>
<mask id="mask5">
  <g filter="url(#alpha)">
<rect x="0" y="0" width="1600" height="1040" style="fill:rgb(0%,0%,0%);fill-opacity:0.101961;stroke:none;"/>
  </g>
</mask>
<clipPath id="clip6">
  <rect x="0" y="0" width="1600" height="1040"/>
</clipPath>
<g id="surface20" clip-path="url(#clip6)">
<path style=" stroke:none;fill-rule:nonzero;fill:rgb(0%,0%,0%);fill-opacity:1;" d="M 1102.378906 191.496094 C 1103.804688 189.382812 1102.769531 186.652344 1100.730469 184.875 C 1098.539062 183.207031 1095.941406 181.910156 1093.097656 181.0625 L 1079.40625 176.148438 C 1074.800781 174.703125 1070.503906 172.703125 1066.675781 170.210938 C 1063.019531 167.574219 1060.378906 163.765625 1060.875 159.882812 C 1061.367188 156 1064.710938 152.878906 1068.222656 150.230469 C 1070.972656 148.144531 1073.917969 146.21875 1077.023438 144.472656 C 1079.503906 142.886719 1082.449219 141.816406 1085.585938 141.363281 C 1092.4375 140.71875 1098.285156 145.171875 1105.003906 146.417969 C 1115.125 148.296875 1124.859375 142.75 1134.996094 141.042969 C 1147.113281 139 1160.203125 142.773438 1168.839844 149.789062 C 1177.476562 156.808594 1181.855469 166.730469 1182.035156 176.539062 C 1182.140625 181.75 1181.179688 187.222656 1183.671875 191.972656 C 1184.808594 194.191406 1186.667969 196.164062 1187.644531 198.429688 C 1188.65625 201.320312 1188.972656 204.332031 1188.574219 207.3125 C 1188.527344 211.457031 1188 215.589844 1187 219.660156 C 1183.371094 232.160156 1170.894531 242.121094 1156.617188 248.152344 C 1148.222656 251.714844 1139.042969 254.183594 1131.367188 258.632812 C 1129.503906 259.863281 1127.492188 260.949219 1125.367188 261.875 C 1121.003906 263.445312 1115.921875 263.097656 1111.960938 260.960938 C 1109.199219 259.558594 1107.507812 257.148438 1107.464844 254.550781 C 1107.613281 252.011719 1109.773438 249.859375 1111.4375 247.6875 C 1115.785156 242.027344 1116.804688 234 1111.019531 229.191406 C 1108.484375 227.089844 1105.019531 225.855469 1102.515625 223.707031 C 1098.496094 220.144531 1098.015625 215.015625 1097.882812 210.269531 C 1097.492188 201.398438 1097.207031 192.164062 1101.886719 184.148438 "/>
</g>
<mask id="mask6">
  <g filter="url(#alpha)">
<rect x="0" y="0" width="1600" height="1040" style="fill:rgb(0%,0%,0%);fill-opacity:0.101961;stroke:none;"/>
  </g>
</mask>
<clipPath id="clip7">
  <rect x="0" y="0" width="1600" height="1040"/>
</clipPath>
<g id="surface23" clip-path="url(#clip7)">
<path style=" stroke:none;fill-rule:nonzero;fill:rgb(0%,0%,0%);fill-opacity:1;" d="M 1146.183594 386.890625 C 1136.960938 395.332031 1123.6875 407.914062 1107.554688 424.644531 C 1099.257812 429.578125 1090.589844 434.105469 1081.597656 438.199219 C 1081.597656 438.199219 1058.25 448.96875 1045.894531 473.035156 C 996.753906 475.074219 937.355469 397.742188 937.355469 397.742188 L 976.253906 365.484375 L 1042.5625 403 L 1064.15625 366.375 C 1075.808594 346.585938 1099.796875 333.144531 1127.242188 331.019531 L 1128.277344 330.949219 C 1142.089844 329.949219 1150.066406 336.480469 1154.652344 344.742188 C 1162.3125 358.910156 1159.015625 375.304688 1146.183594 386.890625 Z M 1146.183594 386.890625 "/>
</g>
<mask id="mask7">
  <g filter="url(#alpha)">
<rect x="0" y="0" width="1600" height="1040" style="fill:rgb(0%,0%,0%);fill-opacity:0.0509804;stroke:none;"/>
  </g>
</mask>
<clipPath id="clip8">
  <rect x="0" y="0" width="1600" height="1040"/>
</clipPath>
<g id="surface26" clip-path="url(#clip8)">
<path style=" stroke:none;fill-rule:nonzero;fill:rgb(0%,0%,0%);fill-opacity:1;" d="M 1022.921875 250.015625 C 1022.921875 250.015625 1018.03125 262.898438 1040.496094 265.199219 C 1042.925781 265.449219 1045.339844 265.792969 1047.722656 266.234375 C 1054.410156 267.5 1061.222656 268.316406 1068.085938 268.667969 C 1064.050781 268.167969 1060.484375 267.574219 1057.964844 267.097656 C 1055.445312 266.625 1053.164062 266.316406 1050.738281 266.066406 C 1028.242188 263.761719 1033.164062 250.882812 1033.164062 250.882812 C 1028.742188 250.140625 1024.253906 249.6875 1019.742188 249.527344 C 1020.835938 249.683594 1021.902344 249.835938 1022.921875 250.015625 Z M 1022.921875 250.015625 "/>
<path style=" stroke:none;fill-rule:nonzero;fill:rgb(0%,0%,0%);fill-opacity:1;" d="M 1119.398438 277.332031 L 1098.992188 266.492188 C 1097.460938 267.335938 1095.769531 267.980469 1093.984375 268.40625 L 1109.160156 276.464844 C 1109.160156 276.464844 1172.347656 320.097656 1158.539062 362.683594 C 1150.15625 388.527344 1119.820312 410.492188 1097.265625 423.777344 C 1088.972656 428.710938 1080.304688 433.238281 1071.308594 437.335938 C 1071.308594 437.335938 1047.960938 448.101562 1035.605469 472.167969 C 1031.128906 480.980469 1028.628906 490.347656 1028.230469 499.839844 C 1034.632812 501.136719 1038.394531 501.953125 1038.394531 501.953125 C 1038.648438 492.015625 1041.1875 482.199219 1045.894531 472.984375 C 1058.25 448.921875 1081.597656 438.152344 1081.597656 438.152344 C 1090.589844 434.058594 1099.257812 429.53125 1107.554688 424.59375 C 1130.046875 411.324219 1160.441406 389.347656 1168.824219 363.5 C 1182.589844 320.964844 1119.398438 277.332031 1119.398438 277.332031 Z M 1119.398438 277.332031 "/>
<path style=" stroke:none;fill-rule:nonzero;fill:rgb(0%,0%,0%);fill-opacity:1;" d="M 855.136719 486.484375 L 854.058594 487.078125 C 854.628906 490.832031 857.808594 491.757812 865.378906 487.351562 C 874.375 482.152344 894.457031 481.605469 917.863281 483.328125 C 890.183594 480.679688 865.347656 480.550781 855.136719 486.484375 Z M 855.136719 486.484375 "/>
</g>
<mask id="mask8">
  <g filter="url(#alpha)">
<rect x="0" y="0" width="1600" height="1040" style="fill:rgb(0%,0%,0%);fill-opacity:0.0509804;stroke:none;"/>
  </g>
</mask>
<clipPath id="clip9">
  <rect x="0" y="0" width="1600" height="1040"/>
</clipPath>
<g id="surface29" clip-path="url(#clip9)">
<path style=" stroke:none;fill-rule:nonzero;fill:rgb(0%,0%,0%);fill-opacity:1;" d="M 895.503906 414.777344 C 895.503906 414.777344 907.097656 438.519531 923.1875 447.128906 C 939.277344 455.734375 960.34375 470.328125 960.34375 470.328125 "/>
</g>
<linearGradient id="linear1" gradientUnits="userSpaceOnUse" x1="636.28" y1="829.65" x2="636.28" y2="226.73" gradientTransform="matrix(1.454545,0.0593607,-0.0749766,1.187215,-20.558575,-47.726027)">
<stop offset="0" style="stop-color:rgb(50.196078%,50.196078%,50.196078%);stop-opacity:0.25098;"/>
<stop offset="0.54" style="stop-color:rgb(50.196078%,50.196078%,50.196078%);stop-opacity:0.121569;"/>
<stop offset="1" style="stop-color:rgb(50.196078%,50.196078%,50.196078%);stop-opacity:0.101961;"/>
</linearGradient>
<mask id="mask9">
  <g filter="url(#alpha)">
<rect x="0" y="0" width="1600" height="1040" style="fill:rgb(0%,0%,0%);fill-opacity:0.0509804;stroke:none;"/>
  </g>
</mask>
<clipPath id="clip10">
  <rect x="0" y="0" width="1600" height="1040"/>
</clipPath>
<g id="surface32" clip-path="url(#clip10)">
<path style=" stroke:none;fill-rule:nonzero;fill:rgb(0%,0%,0%);fill-opacity:1;" d="M 871.480469 398.167969 L 894.5625 400.121094 L 863.148438 632.84375 L 840.066406 630.890625 Z M 871.480469 398.167969 "/>
</g>
<mask id="mask10">
  <g filter="url(#alpha)">
<rect x="0" y="0" width="1600" height="1040" style="fill:rgb(0%,0%,0%);fill-opacity:0.101961;stroke:none;"/>
  </g>
</mask>
<clipPath id="clip11">
  <rect x="0" y="0" width="1600" height="1040"/>
</clipPath>
<g id="surface35" clip-path="url(#clip11)">
<path style=" stroke:none;fill-rule:nonzero;fill:rgb(0%,0%,0%);fill-opacity:1;" d="M 845.832031 405.746094 L 847.132812 396.125 L 894.503906 400.132812 L 893.203125 409.753906 Z M 845.832031 405.746094 "/>
</g>
<mask id="mask11">
  <g filter="url(#alpha)">
<rect x="0" y="0" width="1600" height="1040" style="fill:rgb(0%,0%,0%);fill-opacity:0.101961;stroke:none;"/>
  </g>
</mask>
<clipPath id="clip12">
  <rect x="0" y="0" width="1600" height="1040"/>
</clipPath>
<g id="surface38" clip-path="url(#clip12)">
<path style=" stroke:none;fill-rule:nonzero;fill:rgb(0%,0%,0%);fill-opacity:1;" d="M 858.839844 391.277344 L 860.269531 380.699219 L 888.210938 383.0625 L 886.78125 393.640625 Z M 858.839844 391.277344 "/>
</g>
<mask id="mask12">
  <g filter="url(#alpha)">
<rect x="0" y="0" width="1600" height="1040" style="fill:rgb(0%,0%,0%);fill-opacity:0.101961;stroke:none;"/>
  </g>
</mask>
<clipPath id="clip13">
  <rect x="0" y="0" width="1600" height="1040"/>
</clipPath>
<g id="surface41" clip-path="url(#clip13)">
<path style="fill:none;stroke-width:1;stroke-linecap:butt;stroke-linejoin:miter;stroke:rgb(0%,0%,0%);stroke-opacity:1;stroke-miterlimit:10;" d="M 471.381025 771.300643 C 471.381025 771.300643 487.669968 748.48924 486.859819 732.199141 C 486.04967 715.909041 490.699561 676.149486 490.699561 676.149486 " transform="matrix(1.499531,0,0,1.187215,-99.928772,-14.222831)"/>
</g>
<mask id="mask13">
  <g filter="url(#alpha)">
<rect x="0" y="0" width="1600" height="1040" style="fill:rgb(0%,0%,0%);fill-opacity:0.101961;stroke:none;"/>
  </g>
</mask>
<clipPath id="clip14">
  <rect x="0" y="0" width="1600" height="1040"/>
</clipPath>
<g id="surface44" clip-path="url(#clip14)">
<path style="fill:none;stroke-width:1;stroke-linecap:butt;stroke-linejoin:miter;stroke:rgb(0%,0%,0%);stroke-opacity:1;stroke-miterlimit:10;" d="M 530.850125 710.200433 C 530.850125 710.200433 547.139067 680.061611 545.510955 663.771511 C 545.510955 663.771511 562.620466 632.77064 575.650579 635.26137 " transform="matrix(1.499531,0,0,1.187215,-99.928772,-14.222831)"/>
</g>
<mask id="mask14">
  <g filter="url(#alpha)">
<rect x="0" y="0" width="1600" height="1040" style="fill:rgb(0%,0%,0%);fill-opacity:0.101961;stroke:none;"/>
  </g>
</mask>
<clipPath id="clip15">
  <rect x="0" y="0" width="1600" height="1040"/>
</clipPath>
<g id="surface47" clip-path="url(#clip15)">
<path style="fill:none;stroke-width:1;stroke-linecap:butt;stroke-linejoin:miter;stroke:rgb(0%,0%,0%);stroke-opacity:1;stroke-miterlimit:10;" d="M 620.458848 624.670009 C 620.458848 624.670009 665.259302 608.37991 667.710588 595.340592 " transform="matrix(1.499531,0,0,1.187215,-99.928772,-14.222831)"/>
</g>
<mask id="mask15">
  <g filter="url(#alpha)">
<rect x="0" y="0" width="1600" height="1040" style="fill:rgb(0%,0%,0%);fill-opacity:0.101961;stroke:none;"/>
  </g>
</mask>
<clipPath id="clip16">
  <rect x="0" y="0" width="1600" height="1040"/>
</clipPath>
<g id="surface50" clip-path="url(#clip16)">
<path style="fill:none;stroke-width:1;stroke-linecap:butt;stroke-linejoin:miter;stroke:rgb(0%,0%,0%);stroke-opacity:1;stroke-miterlimit:10;" d="M 636.750396 662.13954 C 636.750396 662.13954 683.999531 640.999591 683.999531 635.26137 L 707.618889 635.26137 C 707.618889 635.26137 741.830098 680.061611 737.761118 699.618942 " transform="matrix(1.499531,0,0,1.187215,-99.928772,-14.222831)"/>
</g>
<mask id="mask16">
  <g filter="url(#alpha)">
<rect x="0" y="0" width="1600" height="1040" style="fill:rgb(0%,0%,0%);fill-opacity:0.101961;stroke:none;"/>
  </g>
</mask>
<clipPath id="clip17">
  <rect x="0" y="0" width="1600" height="1040"/>
</clipPath>
<g id="surface53" clip-path="url(#clip17)">
<path style="fill:none;stroke-width:1;stroke-linecap:butt;stroke-linejoin:miter;stroke:rgb(0%,0%,0%);stroke-opacity:1;stroke-miterlimit:10;" d="M 692.150515 694.719739 C 692.150515 694.719739 646.529492 691.459087 630.240549 704.498404 C 613.949001 717.541013 584.619526 724.049156 584.619526 724.049156 C 584.619526 724.049156 567.510015 760.709282 561.000168 767.230586 C 554.490322 773.7486 543.890657 796.560003 543.890657 796.560003 " transform="matrix(1.499531,0,0,1.187215,-99.928772,-14.222831)"/>
</g>
<mask id="mask17">
  <g filter="url(#alpha)">
<rect x="0" y="0" width="1600" height="1040" style="fill:rgb(0%,0%,0%);fill-opacity:0.101961;stroke:none;"/>
  </g>
</mask>
<clipPath id="clip18">
  <rect x="0" y="0" width="1600" height="1040"/>
</clipPath>
<g id="surface56" clip-path="url(#clip18)">
<path style="fill:none;stroke-width:1;stroke-linecap:butt;stroke-linejoin:miter;stroke:rgb(0%,0%,0%);stroke-opacity:1;stroke-miterlimit:10;" d="M 692.150515 737.901169 C 692.150515 737.901169 697.000989 755.000673 703.54991 764.779339 C 710.098831 774.561295 719.838853 809.579579 719.838853 809.579579 " transform="matrix(1.499531,0,0,1.187215,-99.928772,-14.222831)"/>
</g>
<mask id="mask18">
  <g filter="url(#alpha)">
<rect x="0" y="0" width="1600" height="1040" style="fill:rgb(0%,0%,0%);fill-opacity:0.101961;stroke:none;"/>
  </g>
</mask>
<clipPath id="clip19">
  <rect x="0" y="0" width="1600" height="1040"/>
</clipPath>
<g id="surface59" clip-path="url(#clip19)">
<path style="fill:none;stroke-width:1;stroke-linecap:butt;stroke-linejoin:miter;stroke:rgb(0%,0%,0%);stroke-opacity:1;stroke-miterlimit:10;" d="M 768.718706 787.590742 C 768.718706 787.590742 779.060479 816.360814 788.149255 816.591133 " transform="matrix(1.499531,0,0,1.187215,-99.928772,-14.222831)"/>
</g>
<mask id="mask19">
  <g filter="url(#alpha)">
<rect x="0" y="0" width="1600" height="1040" style="fill:rgb(0%,0%,0%);fill-opacity:0.101961;stroke:none;"/>
  </g>
</mask>
<clipPath id="clip20">
  <rect x="0" y="0" width="1600" height="1040"/>
</clipPath>
<g id="surface62" clip-path="url(#clip20)">
<path style="fill:none;stroke-width:1;stroke-linecap:butt;stroke-linejoin:miter;stroke:rgb(0%,0%,0%);stroke-opacity:1;stroke-miterlimit:10;" d="M 700.999634 664.100538 C 700.999634 664.100538 727.859587 671.358861 739.089658 688.948615 C 750.319729 706.538368 784.661187 722.499441 784.661187 722.499441 " transform="matrix(1.499531,0,0,1.187215,-99.928772,-14.222831)"/>
</g>
<mask id="mask20">
  <g filter="url(#alpha)">
<rect x="0" y="0" width="1600" height="1040" style="fill:rgb(0%,0%,0%);fill-opacity:0.101961;stroke:none;"/>
  </g>
</mask>
<clipPath id="clip21">
  <rect x="0" y="0" width="1600" height="1040"/>
</clipPath>
<g id="surface65" clip-path="url(#clip21)">
<path style="fill:none;stroke-width:1;stroke-linecap:butt;stroke-linejoin:miter;stroke:rgb(0%,0%,0%);stroke-opacity:1;stroke-miterlimit:10;" d="M 712.511042 577.418522 C 712.511042 577.418522 712.511042 614.891343 723.100288 614.891343 C 733.689534 614.891343 757.319312 619.000883 757.319312 619.000883 " transform="matrix(1.499531,0,0,1.187215,-99.928772,-14.222831)"/>
</g>
<mask id="mask21">
  <g filter="url(#alpha)">
<rect x="0" y="0" width="1600" height="1040" style="fill:rgb(0%,0%,0%);fill-opacity:0.101961;stroke:none;"/>
  </g>
</mask>
<clipPath id="clip22">
  <rect x="0" y="0" width="1600" height="1040"/>
</clipPath>
<g id="surface68" clip-path="url(#clip22)">
<path style="fill:none;stroke-width:1;stroke-linecap:butt;stroke-linejoin:miter;stroke:rgb(0%,0%,0%);stroke-opacity:1;stroke-miterlimit:10;" d="M 660.640671 532.950598 C 660.640671 532.950598 657.928887 597.67997 644.09123 614.430706 " transform="matrix(1.499531,0,0,1.187215,-99.928772,-14.222831)"/>
</g>
<mask id="mask22">
  <g filter="url(#alpha)">
<rect x="0" y="0" width="1600" height="1040" style="fill:rgb(0%,0%,0%);fill-opacity:0.0509804;stroke:none;"/>
  </g>
</mask>
<clipPath id="clip23">
  <rect x="0" y="0" width="1600" height="1040"/>
</clipPath>
<g id="surface71" clip-path="url(#clip23)">
<path style=" stroke:none;fill-rule:nonzero;fill:rgb(0%,0%,0%);fill-opacity:1;" d="M 1116.3125 825.066406 L 1086.996094 745.761719 C 1060.125 714.808594 1033.253906 719.640625 1033.253906 719.640625 C 1017.371094 711.914062 1006.378906 668.425781 1006.378906 668.425781 C 1001.492188 621.03125 891.5625 622.003906 891.5625 622.003906 L 883.015625 610.394531 C 872.1875 608.683594 859.875 608.578125 847.535156 609.386719 C 850.535156 609.621094 853.367188 609.957031 856.140625 610.394531 L 864.691406 622.003906 C 864.691406 622.003906 974.636719 621.042969 979.507812 668.425781 C 979.507812 668.425781 990.5 711.949219 1006.378906 719.691406 C 1006.378906 719.691406 1033.253906 714.859375 1060.125 745.808594 L 1089.441406 825.113281 C 1089.441406 825.113281 1166.394531 882.125 1143.183594 934.363281 C 1143.183594 934.363281 1127.511719 952.015625 1062.3125 954.140625 C 1150.199219 956.691406 1170.054688 934.363281 1170.054688 934.363281 C 1193.265625 882.125 1116.3125 825.066406 1116.3125 825.066406 Z M 1116.3125 825.066406 "/>
<path style=" stroke:none;fill-rule:nonzero;fill:rgb(0%,0%,0%);fill-opacity:1;" d="M 686.320312 930.492188 C 660.460938 934.148438 634.3125 936.390625 608.058594 937.199219 C 638.652344 938.125 670.484375 935.511719 691 933.269531 C 689.429688 932.367188 687.871094 931.441406 686.320312 930.492188 Z M 686.320312 930.492188 "/>
<path style=" stroke:none;fill-rule:nonzero;fill:rgb(0%,0%,0%);fill-opacity:1;" d="M 950.179688 945.960938 C 912.566406 954.308594 873.851562 959.15625 834.820312 960.398438 C 891.125 962.011719 944.464844 952.726562 966.464844 948.265625 C 961.183594 947.5625 955.742188 946.804688 950.179688 945.960938 Z M 950.179688 945.960938 "/>
</g>
<mask id="mask23">
  <g filter="url(#alpha)">
<rect x="0" y="0" width="1600" height="1040" style="fill:rgb(0%,0%,0%);fill-opacity:0.0509804;stroke:none;"/>
  </g>
</mask>
<clipPath id="clip24">
  <rect x="0" y="0" width="1600" height="1040"/>
</clipPath>
<g id="surface74" clip-path="url(#clip24)">
<path style=" stroke:none;fill-rule:nonzero;fill:rgb(0%,0%,0%);fill-opacity:1;" d="M 885.753906 288.007812 L 900.335938 289.242188 L 887.613281 383.480469 L 873.03125 382.246094 Z M 885.753906 288.007812 "/>
</g>
<mask id="mask24">
  <g filter="url(#alpha)">
<rect x="0" y="0" width="1600" height="1040" style="fill:rgb(0%,0%,0%);fill-opacity:0.101961;stroke:none;"/>
  </g>
</mask>
<clipPath id="clip25">
  <rect x="0" y="0" width="1600" height="1040"/>
</clipPath>
<g id="surface77" clip-path="url(#clip25)">
<path style=" stroke:none;fill-rule:nonzero;fill:rgb(0%,0%,0%);fill-opacity:1;" d="M 900.84375 289.8125 L 899.824219 297.363281 C 891.003906 301.996094 879.265625 300.996094 871.886719 294.988281 L 872.90625 287.4375 Z M 900.84375 289.8125 "/>
</g>
<mask id="mask25">
  <g filter="url(#alpha)">
<rect x="0" y="0" width="1600" height="1040" style="fill:rgb(0%,0%,0%);fill-opacity:0.0509804;stroke:none;"/>
  </g>
</mask>
<clipPath id="clip26">
  <rect x="0" y="0" width="1600" height="1040"/>
</clipPath>
<g id="surface80" clip-path="url(#clip26)">
<path style=" stroke:none;fill-rule:nonzero;fill:rgb(0%,0%,0%);fill-opacity:1;" d="M 909.644531 283.769531 C 908.339844 293.320312 897.507812 300.226562 885.441406 299.203125 L 890.121094 264.582031 C 895.925781 265.074219 901.246094 267.371094 904.910156 270.96875 C 908.570312 274.570312 910.277344 279.171875 909.644531 283.769531 Z M 909.644531 283.769531 "/>
</g>
<mask id="mask26">
  <g filter="url(#alpha)">
<rect x="0" y="0" width="1600" height="1040" style="fill:rgb(0%,0%,0%);fill-opacity:0.101961;stroke:none;"/>
  </g>
</mask>
<clipPath id="clip27">
  <rect x="0" y="0" width="1600" height="1040"/>
</clipPath>
<g id="surface83" clip-path="url(#clip27)">
<path style=" stroke:none;fill-rule:nonzero;fill:rgb(0%,0%,0%);fill-opacity:1;" d="M 984.980469 368.949219 L 969.671875 388.621094 L 955.007812 378.53125 L 976.554688 360.675781 Z M 984.980469 368.949219 "/>
</g>
<mask id="mask27">
  <g filter="url(#alpha)">
<rect x="0" y="0" width="1600" height="1040" style="fill:rgb(0%,0%,0%);fill-opacity:0.101961;stroke:none;"/>
  </g>
</mask>
<clipPath id="clip28">
  <rect x="0" y="0" width="1600" height="1040"/>
</clipPath>
<g id="surface86" clip-path="url(#clip28)">
<path style=" stroke:none;fill-rule:nonzero;fill:rgb(0%,0%,0%);fill-opacity:1;" d="M 111.894531 601.417969 C 111.894531 601.417969 174.636719 651.09375 139.214844 724.792969 C 103.796875 798.496094 199.976562 921.066406 199.976562 921.066406 C 199.976562 921.066406 198.941406 920.945312 196.976562 920.683594 C 68.140625 902.675781 4.125 785.960938 75.769531 699.292969 C 102.402344 667.109375 124.265625 629.246094 111.894531 601.417969 Z M 111.894531 601.417969 "/>
</g>
<mask id="mask28">
  <g filter="url(#alpha)">
<rect x="0" y="0" width="1600" height="1040" style="fill:rgb(0%,0%,0%);fill-opacity:0.2;stroke:none;"/>
  </g>
</mask>
<clipPath id="clip29">
  <rect x="0" y="0" width="1600" height="1040"/>
</clipPath>
<g id="surface89" clip-path="url(#clip29)">
<path style=" stroke:none;fill-rule:nonzero;fill:rgb(0%,0%,0%);fill-opacity:1;" d="M 1428.46875 805.359375 C 1390.53125 805.597656 1340.324219 800.679688 1330.21875 795.859375 C 1322.527344 792.144531 1319.453125 778.835938 1318.433594 772.6875 L 1317.308594 772.6875 C 1317.308594 772.6875 1319.4375 794.140625 1329.542969 799.019531 C 1339.652344 803.898438 1389.855469 808.8125 1427.792969 808.515625 C 1438.742188 808.445312 1442.519531 805.359375 1442.324219 800.800781 C 1440.792969 803.578125 1436.609375 805.300781 1428.46875 805.359375 Z M 1428.46875 805.359375 "/>
</g>
<mask id="mask29">
  <g filter="url(#alpha)">
<rect x="0" y="0" width="1600" height="1040" style="fill:rgb(0%,0%,0%);fill-opacity:0.2;stroke:none;"/>
  </g>
</mask>
<clipPath id="clip30">
  <rect x="0" y="0" width="1600" height="1040"/>
</clipPath>
<g id="surface92" clip-path="url(#clip30)">
<path style=" stroke:none;fill-rule:nonzero;fill:rgb(0%,0%,0%);fill-opacity:1;" d="M 72.21875 935.550781 C 136.128906 944.476562 222.574219 947.421875 241.363281 941.484375 C 255.683594 936.949219 265.628906 915.175781 269.554688 905.039062 L 271.429688 905.347656 C 271.429688 905.347656 260.152344 941.058594 241.363281 947.003906 C 222.574219 952.953125 136.113281 949.984375 72.21875 941.070312 C 53.773438 938.492188 48.496094 932.4375 50.488281 924.78125 C 52.046875 929.742188 58.480469 933.589844 72.21875 935.550781 Z M 72.21875 935.550781 "/>
</g>
</defs>
<g id="surface1">
<use xlink:href="#surface5" mask="url(#mask0)"/>
<path style=" stroke:none;fill-rule:nonzero;fill:url(#linear0);" d="M 1105.84375 918.308594 C 1108.257812 891.929688 1107.523438 871.699219 1104.34375 869.632812 C 1102.996094 868.746094 1101.75 865.539062 1100.761719 862.15625 C 1104.164062 860.136719 1105.996094 857.773438 1105.167969 855.03125 C 1101.179688 841.855469 1038.082031 744.835938 1027.929688 743.066406 C 1017.777344 741.296875 1019.875 597.523438 1019.875 597.523438 L 1034.691406 487.851562 L 1034.480469 487.851562 C 1035.6875 481.910156 1037.734375 476.09375 1040.585938 470.515625 C 1041.15625 469.414062 1041.753906 468.34375 1042.355469 467.289062 C 1054.621094 467.632812 1066.347656 463.324219 1076.484375 451.984375 C 1087.519531 439.636719 1097.777344 428.65625 1107.074219 419.027344 C 1129.027344 405.492188 1156.046875 384.597656 1163.890625 360.367188 C 1177.761719 317.53125 1114.40625 273.699219 1114.40625 273.699219 L 1094.6875 263.195312 C 1094.433594 262.601562 1094.207031 262.007812 1094 261.414062 C 1093.789062 260.820312 1093.609375 260.226562 1093.441406 259.679688 C 1097.996094 259.253906 1102.476562 258.433594 1106.804688 257.234375 C 1110.785156 259.398438 1115.910156 259.746094 1120.300781 258.148438 L 1120.570312 258.027344 C 1121.304688 257.882812 1122.023438 257.683594 1122.714844 257.4375 C 1124.871094 256.503906 1126.910156 255.410156 1128.800781 254.171875 C 1136.511719 249.683594 1145.71875 247.203125 1154.128906 243.617188 C 1168.449219 237.527344 1180.957031 227.492188 1184.601562 214.921875 C 1185.617188 210.847656 1186.167969 206.703125 1186.234375 202.550781 C 1186.632812 199.554688 1186.316406 196.527344 1185.304688 193.621094 C 1184.316406 191.34375 1182.46875 189.359375 1181.316406 187.128906 C 1178.8125 182.285156 1179.816406 176.824219 1179.679688 171.589844 C 1179.5 161.722656 1175.183594 151.75 1166.457031 144.6875 C 1157.726562 137.621094 1144.667969 133.835938 1132.519531 135.886719 C 1129.269531 136.484375 1126.082031 137.28125 1122.984375 138.261719 C 1121.589844 138.667969 1120.210938 139.09375 1118.832031 139.449219 C 1113.386719 141.027344 1107.957031 142.226562 1102.335938 141.195312 C 1095.601562 139.949219 1089.738281 135.472656 1082.839844 136.113281 C 1081.402344 136.265625 1080.003906 136.601562 1078.703125 137.113281 C 1076.226562 137.742188 1073.910156 138.703125 1071.851562 139.960938 C 1068.730469 141.71875 1065.78125 143.65625 1063.019531 145.753906 C 1059.507812 148.425781 1056.148438 151.632812 1055.65625 155.464844 C 1055.410156 158.671875 1056.792969 161.820312 1059.492188 164.214844 C 1043.296875 170.179688 1031.027344 181.277344 1025.703125 194.777344 C 1020.378906 208.273438 1022.496094 222.925781 1031.527344 235.128906 C 1031.40625 235.675781 1031.28125 236.226562 1031.152344 236.789062 C 1030.175781 240.984375 1028.925781 245.140625 1027.402344 249.230469 C 1027.449219 248.46875 1027.59375 247.714844 1027.839844 246.976562 C 1026.835938 246.796875 1025.800781 246.644531 1024.734375 246.5 L 1024.253906 246.5 C 1023.316406 246.375 1022.367188 246.265625 1021.40625 246.167969 L 1021.164062 246.167969 C 1006.753906 244.730469 989.164062 246.003906 979.179688 250.527344 C 962.792969 257.996094 949.988281 269.546875 942.753906 283.375 C 932.230469 291.789062 924.148438 301.917969 919.078125 313.054688 C 911.699219 310.296875 903.597656 308.96875 895.445312 309.1875 C 883.300781 290.191406 860.324219 266.519531 830.214844 291.816406 C 798.53125 318.445312 837.441406 326.246094 864.121094 328.539062 C 865.003906 330.976562 866.378906 333.285156 868.199219 335.375 C 870.128906 337.691406 872.25 339.902344 874.542969 342 C 873.6875 342.214844 872.777344 342.253906 871.902344 342.109375 C 865.769531 340.753906 866.21875 390.355469 893.644531 404.828125 C 889.089844 413.875 883.179688 422.457031 876.042969 430.390625 C 865.941406 441.796875 857.996094 454.3125 852.453125 467.535156 C 849.621094 474.433594 847.59375 481 848.164062 484.75 C 848.222656 485.183594 848.332031 485.609375 848.496094 486.023438 C 848.566406 486.195312 848.652344 486.367188 848.75 486.53125 C 848.84375 486.6875 848.953125 486.832031 849.078125 486.972656 C 849.195312 487.097656 849.328125 487.210938 849.46875 487.316406 C 849.601562 487.414062 849.75 487.5 849.90625 487.578125 C 850.0625 487.648438 850.226562 487.707031 850.398438 487.753906 C 850.574219 487.796875 850.757812 487.824219 850.9375 487.839844 L 851.027344 487.839844 C 851.230469 487.851562 851.429688 487.851562 851.628906 487.839844 L 851.75 487.839844 C 851.96875 487.824219 852.191406 487.800781 852.410156 487.765625 L 852.558594 487.765625 L 853.234375 487.625 L 853.457031 487.625 L 854.148438 487.410156 L 854.449219 487.316406 L 855.199219 487.03125 L 855.527344 486.902344 L 856.382812 486.507812 L 856.699219 486.367188 L 857.761719 485.832031 L 857.972656 485.726562 L 859.335938 484.953125 C 858.015625 486.996094 856.488281 489.214844 854.734375 491.507812 C 846.066406 502.714844 831.820312 515.703125 810.828125 519.359375 C 771.839844 526.136719 671.503906 627.667969 671.503906 627.667969 C 671.503906 627.667969 640.570312 625.972656 653.105469 704.042969 C 665.640625 782.113281 668.011719 824.484375 668.011719 824.484375 L 668.566406 824.757812 C 656.808594 835.347656 632.832031 854.367188 611.988281 854.59375 C 583.078125 854.902344 566.042969 869.957031 579.777344 879.371094 C 593.515625 888.785156 743.226562 873.957031 743.226562 873.957031 C 743.226562 873.957031 744.21875 842.980469 737.09375 828.746094 C 738.292969 827.910156 739.414062 827.011719 740.453125 826.050781 L 733.0625 669.46875 C 733.0625 669.46875 826.527344 606.039062 872.097656 599.886719 C 871.796875 599.757812 871.496094 599.636719 871.210938 599.519531 C 874.097656 599.164062 877.027344 599.117188 879.925781 599.390625 C 919.753906 603.675781 949.984375 747.421875 949.984375 747.421875 C 949.984375 747.421875 957.316406 770.050781 979.210938 787.492188 C 1001.101562 804.929688 1049.6875 872.304688 1049.6875 872.304688 L 1051.710938 872.128906 L 1051.980469 872.496094 C 1051.980469 882.707031 1050.015625 898.03125 1039.984375 909.988281 C 1023.488281 929.671875 1069.78125 937.292969 1069.78125 937.292969 C 1069.78125 937.292969 1103.445312 944.691406 1105.84375 918.308594 Z M 1105.84375 918.308594 "/>
<path style=" stroke:none;fill-rule:nonzero;fill:rgb(26.666667%,25.490196%,46.27451%);fill-opacity:1;" d="M 682.542969 818.253906 C 682.542969 818.253906 647.707031 854.496094 618.886719 854.816406 C 590.066406 855.140625 573.074219 870.085938 586.78125 879.441406 C 600.488281 888.796875 749.839844 874.097656 749.839844 874.097656 C 749.839844 874.097656 751.25 829.554688 738.324219 823.046875 C 725.398438 816.542969 682.542969 818.253906 682.542969 818.253906 Z M 682.542969 818.253906 "/>
<path style=" stroke:none;fill-rule:nonzero;fill:rgb(26.666667%,25.490196%,46.27451%);fill-opacity:1;" d="M 1056.601562 861.761719 C 1056.601562 861.761719 1061.9375 890.46875 1045.472656 910.046875 C 1029.007812 929.625 1075.195312 937.175781 1075.195312 937.175781 C 1075.195312 937.175781 1108.738281 944.570312 1111.183594 918.347656 C 1113.628906 892.121094 1112.832031 872.042969 1109.683594 869.90625 C 1106.535156 867.769531 1103.910156 853.015625 1103.910156 853.015625 Z M 1056.601562 861.761719 "/>
<path style=" stroke:none;fill-rule:nonzero;fill:rgb(33.72549%,32.54902%,52.941176%);fill-opacity:1;" d="M 1055.128906 872.625 C 1055.128906 872.625 1006.605469 805.621094 984.773438 788.335938 C 962.9375 771.046875 955.605469 748.492188 955.605469 748.492188 C 955.605469 748.492188 925.40625 605.5625 885.683594 601.277344 C 845.960938 596.992188 736.988281 670.730469 736.988281 670.730469 L 744.757812 826.347656 C 721.109375 848.050781 674.714844 824.972656 674.714844 824.972656 C 674.714844 824.972656 672.328125 782.753906 659.824219 705.121094 C 647.316406 627.492188 678.132812 629.140625 678.132812 629.140625 C 678.132812 629.140625 778.105469 528.226562 817.003906 521.484375 C 838 517.863281 852.125 504.945312 860.777344 493.808594 C 865.160156 488.199219 868.757812 482.226562 871.511719 476 L 1037.707031 490.070312 L 1022.980469 599.117188 C 1022.980469 599.117188 1020.941406 742.054688 1031.078125 743.824219 C 1041.214844 745.59375 1104.164062 842.078125 1108.152344 855.175781 C 1112.140625 868.269531 1055.128906 872.625 1055.128906 872.625 Z M 1055.128906 872.625 "/>
<use xlink:href="#surface8" mask="url(#mask1)"/>
<path style=" stroke:none;fill-rule:nonzero;fill:rgb(100%,74.509804%,78.039216%);fill-opacity:1;" d="M 1136.238281 306.097656 C 1136.238281 306.097656 979.074219 301.910156 1007.804688 285.203125 C 1025.53125 274.886719 1033.191406 254.71875 1036.476562 240.765625 C 1037.664062 235.835938 1038.457031 230.851562 1038.84375 225.84375 C 1038.84375 225.84375 1122.625 219.265625 1102.019531 243.949219 C 1096.621094 250.429688 1096.398438 257.78125 1099.023438 265.09375 C 1106.414062 285.703125 1136.238281 306.097656 1136.238281 306.097656 Z M 1136.238281 306.097656 "/>
<path style=" stroke:none;fill-rule:nonzero;fill:rgb(87.45098%,89.803922%,93.333333%);fill-opacity:1;" d="M 965.277344 276.132812 C 965.277344 276.132812 927.25 292.96875 919.753906 331.53125 C 912.253906 370.089844 906.09375 330.34375 906.09375 330.34375 C 906.09375 330.34375 884.304688 346.726562 877.601562 345.253906 C 870.898438 343.78125 872.082031 403.117188 907.90625 410.71875 C 943.730469 418.316406 972.027344 294 972.027344 294 Z M 965.277344 276.132812 "/>
<use xlink:href="#surface11" mask="url(#mask2)"/>
<path style=" stroke:none;fill-rule:nonzero;fill:rgb(100%,74.509804%,78.039216%);fill-opacity:1;" d="M 910.753906 330.757812 C 910.753906 330.757812 881.542969 257.152344 836.109375 295.273438 C 790.671875 333.394531 890.917969 332.730469 890.917969 332.730469 Z M 910.753906 330.757812 "/>
<use xlink:href="#surface14" mask="url(#mask3)"/>
<path style=" stroke:none;fill-rule:nonzero;fill:rgb(100%,74.509804%,78.039216%);fill-opacity:1;" d="M 1100.0625 164.488281 C 1134.476562 168.425781 1158.347656 193.707031 1153.375 220.953125 C 1148.40625 248.203125 1116.472656 267.101562 1082.054688 263.167969 C 1047.636719 259.230469 1023.769531 233.949219 1028.738281 206.699219 C 1033.710938 179.449219 1065.644531 160.550781 1100.0625 164.488281 Z M 1100.0625 164.488281 "/>
<use xlink:href="#surface17" mask="url(#mask4)"/>
<path style=" stroke:none;fill-rule:nonzero;fill:rgb(87.45098%,89.803922%,93.333333%);fill-opacity:1;" d="M 1168.78125 363.550781 C 1160.398438 389.394531 1130.0625 411.359375 1107.507812 424.644531 C 1099.214844 429.578125 1090.546875 434.105469 1081.550781 438.199219 C 1081.550781 438.199219 1058.203125 448.96875 1045.847656 473.035156 C 1041.144531 482.246094 1038.601562 492.066406 1038.351562 502 C 1038.351562 502 894.066406 470.648438 865.335938 487.351562 C 850.234375 496.136719 852.617188 483.71875 858.285156 469.972656 C 863.808594 456.824219 871.722656 444.382812 881.785156 433.046875 C 889.71875 424.015625 899.675781 410.777344 902.671875 398.441406 C 906.648438 382.058594 933.625 319.742188 946.160156 291.246094 C 952.875 275.652344 966.53125 262.523438 984.578125 254.3125 C 996.214844 249.101562 1017.988281 248.234375 1033.164062 250.882812 C 1033.164062 250.882812 1028.273438 263.761719 1050.738281 266.066406 C 1053.164062 266.316406 1055.582031 266.660156 1057.964844 267.097656 C 1066.960938 268.773438 1089.140625 272.109375 1098.976562 266.480469 L 1119.386719 277.320312 C 1119.386719 277.320312 1182.589844 320.964844 1168.78125 363.550781 Z M 1168.78125 363.550781 "/>
<use xlink:href="#surface20" mask="url(#mask5)"/>
<path style=" stroke:none;fill-rule:nonzero;fill:rgb(53.333333%,27.058824%,36.862745%);fill-opacity:1;" d="M 1103.144531 184.160156 C 1100.953125 182.492188 1098.355469 181.195312 1095.511719 180.351562 L 1081.820312 175.433594 C 1077.214844 173.992188 1072.917969 171.988281 1069.089844 169.5 C 1065.433594 166.863281 1062.792969 163.050781 1063.289062 159.167969 C 1063.78125 155.289062 1067.125 152.164062 1070.636719 149.519531 C 1073.386719 147.429688 1076.332031 145.507812 1079.4375 143.761719 C 1081.921875 142.175781 1084.863281 141.105469 1088 140.648438 C 1094.851562 140.007812 1100.699219 144.460938 1107.417969 145.707031 C 1117.539062 147.582031 1127.273438 142.039062 1137.410156 140.328125 C 1149.527344 138.285156 1162.617188 142.0625 1171.253906 149.078125 C 1179.890625 156.09375 1184.269531 166.019531 1184.449219 175.828125 C 1184.554688 181.039062 1183.59375 186.511719 1186.085938 191.261719 C 1187.222656 193.480469 1189.082031 195.449219 1190.058594 197.71875 C 1191.070312 200.605469 1191.386719 203.617188 1190.988281 206.597656 C 1190.921875 210.730469 1190.382812 214.847656 1189.367188 218.898438 C 1185.738281 231.398438 1173.261719 241.359375 1158.988281 247.390625 C 1150.589844 250.953125 1141.414062 253.421875 1133.734375 257.875 C 1131.871094 259.105469 1129.863281 260.191406 1127.738281 261.117188 C 1123.375 262.6875 1118.292969 262.339844 1114.332031 260.203125 C 1111.566406 258.796875 1109.878906 256.390625 1109.832031 253.789062 C 1109.984375 251.25 1112.140625 249.101562 1113.808594 246.929688 C 1118.15625 241.265625 1119.175781 233.238281 1113.386719 228.433594 C 1110.851562 226.332031 1107.390625 225.097656 1104.882812 222.945312 C 1100.867188 219.386719 1100.386719 214.257812 1100.25 209.507812 C 1099.859375 200.640625 1097.957031 192.28125 1102.636719 184.21875 "/>
<use xlink:href="#surface23" mask="url(#mask6)"/>
<use xlink:href="#surface26" mask="url(#mask7)"/>
<use xlink:href="#surface29" mask="url(#mask8)"/>
<path style=" stroke:none;fill-rule:nonzero;fill:url(#linear1);" d="M 1114.691406 842.578125 L 1090.519531 759.925781 C 1080.203125 746.355469 1069.601562 739.066406 1060.707031 735.183594 C 1049.253906 729.601562 1040.136719 729.636719 1037.253906 729.839844 L 1034.015625 727.132812 C 1021.691406 713.351562 1015.152344 677.269531 1015.152344 677.269531 C 1014.507812 660.351562 1000.96875 648.894531 983.542969 641.15625 C 954.183594 627.230469 912.074219 624.535156 903.121094 624.117188 L 895.984375 612.875 L 894.066406 612.507812 L 893.617188 611.796875 C 892.117188 611.476562 890.421875 611.203125 888.789062 610.941406 L 901.414062 405.800781 L 901.535156 403.820312 L 951.394531 405.742188 C 959.503906 405.8125 966.238281 400.796875 966.640625 394.382812 C 967.042969 387.96875 960.972656 382.445312 952.890625 381.878906 L 894.515625 379.625 L 894.515625 378.625 L 899.972656 289.988281 L 899.972656 288.992188 C 905.238281 285.734375 908.4375 280.8125 908.730469 275.527344 C 909.269531 269.261719 905.492188 263.253906 898.847656 259.820312 C 892.207031 256.382812 883.738281 256.058594 876.707031 258.964844 C 869.675781 261.875 865.175781 267.5625 864.945312 273.84375 C 864.589844 279.125 867.171875 284.265625 872.007812 287.910156 L 872.007812 288.910156 L 866.519531 377.558594 L 866.519531 378.554688 L 808.082031 376.371094 C 799.972656 376.300781 793.238281 381.316406 792.835938 387.730469 C 792.433594 394.144531 798.503906 399.667969 806.582031 400.234375 L 854.011719 402.0625 L 853.894531 404.042969 L 841.101562 611.808594 C 822.765625 613.632812 804.644531 616.613281 786.910156 620.722656 L 766.277344 678.71875 L 706.007812 687.363281 L 674.609375 741.972656 L 645.339844 782.613281 C 642.234375 783.515625 639.21875 784.476562 636.339844 785.460938 C 527.25 821.910156 522.828125 912.421875 522.828125 912.421875 C 553.222656 953.453125 706.714844 935.464844 706.714844 935.464844 C 794.316406 997.640625 968.441406 961.511719 968.441406 961.511719 C 1010.429688 969.703125 1043.660156 973.253906 1069.871094 974.050781 C 1142.957031 976.257812 1161.34375 956.988281 1161.34375 956.988281 C 1187.644531 904.183594 1114.691406 842.578125 1114.691406 842.578125 Z M 1114.691406 842.578125 "/>
<path style=" stroke:none;fill-rule:nonzero;fill:rgb(42.352941%,38.823529%,100%);fill-opacity:1;" d="M 858.839844 391.269531 L 872.859375 287.410156 L 900.800781 289.773438 L 886.78125 393.632812 Z M 858.839844 391.269531 "/>
<path style=" stroke:none;fill-rule:nonzero;fill:rgb(94.117647%,96.078431%,98.039216%);fill-opacity:1;" d="M 815.707031 628.839844 L 847.121094 396.117188 L 894.492188 400.125 L 863.078125 632.847656 Z M 815.707031 628.839844 "/>
<use xlink:href="#surface32" mask="url(#mask9)"/>
<use xlink:href="#surface35" mask="url(#mask10)"/>
<use xlink:href="#surface38" mask="url(#mask11)"/>
<path style=" stroke:none;fill-rule:nonzero;fill:rgb(42.352941%,38.823529%,100%);fill-opacity:1;" d="M 801.898438 376.707031 L 946.425781 388.9375 C 954.480469 389.617188 960.3125 395.335938 959.449219 401.710938 C 958.589844 408.082031 951.363281 412.695312 943.3125 412.015625 L 798.785156 399.785156 C 790.730469 399.105469 784.898438 393.386719 785.757812 387.011719 C 786.621094 380.640625 793.84375 376.027344 801.898438 376.707031 Z M 801.898438 376.707031 "/>
<path style=" stroke:none;fill-rule:nonzero;fill:rgb(65.882353%,65.882353%,65.882353%);fill-opacity:1;" d="M 529.964844 915.984375 C 529.964844 915.984375 528.75 823.144531 644.785156 785.390625 L 671.65625 744.773438 L 699.757812 690.613281 L 759.617188 679.929688 L 776.710938 622.871094 C 776.710938 622.871094 842.691406 604.492188 885.429688 611.261719 L 893.976562 622.871094 C 893.976562 622.871094 1003.921875 621.910156 1008.792969 669.292969 C 1008.792969 669.292969 1019.785156 712.816406 1035.667969 720.554688 C 1035.667969 720.554688 1062.539062 715.722656 1089.410156 746.675781 L 1118.726562 825.980469 C 1118.726562 825.980469 1195.679688 883.039062 1172.46875 935.265625 C 1172.46875 935.265625 1140.707031 971.046875 979.464844 946.875 C 979.464844 946.875 807.226562 988.425781 715.546875 931.441406 C 715.652344 931.453125 562.953125 954.664062 529.964844 915.984375 Z M 529.964844 915.984375 "/>
<use xlink:href="#surface41" mask="url(#mask12)"/>
<use xlink:href="#surface44" mask="url(#mask13)"/>
<use xlink:href="#surface47" mask="url(#mask14)"/>
<use xlink:href="#surface50" mask="url(#mask15)"/>
<use xlink:href="#surface53" mask="url(#mask16)"/>
<use xlink:href="#surface56" mask="url(#mask17)"/>
<use xlink:href="#surface59" mask="url(#mask18)"/>
<use xlink:href="#surface62" mask="url(#mask19)"/>
<use xlink:href="#surface65" mask="url(#mask20)"/>
<use xlink:href="#surface68" mask="url(#mask21)"/>
<use xlink:href="#surface71" mask="url(#mask22)"/>
<use xlink:href="#surface74" mask="url(#mask23)"/>
<use xlink:href="#surface77" mask="url(#mask24)"/>
<path style=" stroke:none;fill-rule:nonzero;fill:rgb(42.352941%,38.823529%,100%);fill-opacity:1;" d="M 890.078125 264.566406 C 902.148438 265.589844 910.890625 274.164062 909.597656 283.722656 C 908.308594 293.28125 897.476562 300.199219 885.402344 299.179688 C 873.332031 298.15625 864.589844 289.582031 865.882812 280.023438 C 867.171875 270.464844 878.003906 263.546875 890.078125 264.566406 Z M 890.078125 264.566406 "/>
<use xlink:href="#surface80" mask="url(#mask25)"/>
<path style=" stroke:none;fill-rule:nonzero;fill:rgb(100%,74.509804%,78.039216%);fill-opacity:1;" d="M 984.980469 368.949219 L 969.65625 388.621094 L 954.992188 378.542969 L 934.898438 364.722656 C 934.898438 364.722656 897.738281 367.097656 873.957031 338.605469 C 863.761719 326.414062 871.691406 319.433594 884.0625 315.453125 C 905.082031 308.855469 929.078125 313.917969 943.160156 327.921875 Z M 984.980469 368.949219 "/>
<use xlink:href="#surface83" mask="url(#mask26)"/>
<path style=" stroke:none;fill-rule:nonzero;fill:rgb(87.45098%,89.803922%,93.333333%);fill-opacity:1;" d="M 1069.195312 363.15625 L 1047.601562 399.769531 L 981.234375 362.253906 L 942.394531 394.511719 C 942.394531 394.511719 1031.496094 510.527344 1081.703125 454.609375 C 1112.15625 420.640625 1136.691406 396.992188 1151.25 383.660156 C 1164.101562 372.082031 1167.410156 355.6875 1159.753906 341.515625 C 1155.164062 333.203125 1147.1875 326.734375 1133.375 327.71875 L 1132.339844 327.800781 C 1104.875 329.910156 1080.859375 343.355469 1069.195312 363.15625 Z M 1069.195312 363.15625 "/>
<path style="fill:none;stroke-width:2;stroke-linecap:butt;stroke-linejoin:miter;stroke:rgb(32.54902%,32.941176%,38.039216%);stroke-opacity:1;stroke-miterlimit:10;" d="M 985.830803 672.349231 C 985.830803 672.349231 972.568848 627.351575 988.321165 594.208741 C 995.013359 580.356728 997.029614 564.70823 994.070356 549.609207 C 992.608962 542.456172 990.498928 535.447909 987.761094 528.679835 " transform="matrix(1.499531,0,0,1.187215,-99.928772,-14.222831)"/>
<path style=" stroke:none;fill-rule:nonzero;fill:rgb(42.352941%,38.823529%,100%);fill-opacity:1;" d="M 1395.914062 588.574219 C 1395.914062 595.125 1380.917969 614.109375 1380.917969 614.109375 C 1380.917969 614.109375 1365.921875 595.113281 1365.921875 588.574219 C 1365.921875 582.015625 1372.636719 576.703125 1380.917969 576.703125 C 1389.199219 576.703125 1395.914062 582.015625 1395.914062 588.574219 Z M 1395.914062 588.574219 "/>
<path style=" stroke:none;fill-rule:nonzero;fill:rgb(42.352941%,38.823529%,100%);fill-opacity:1;" d="M 1420.6875 624.84375 C 1416.1875 630.339844 1390.574219 639.835938 1390.574219 639.835938 C 1390.574219 639.835938 1391.039062 617.445312 1395.539062 611.949219 C 1400.199219 606.785156 1409.164062 605.433594 1415.894531 608.882812 C 1422.621094 612.335938 1424.734375 619.363281 1420.6875 624.84375 Z M 1420.6875 624.84375 "/>
<path style=" stroke:none;fill-rule:nonzero;fill:rgb(42.352941%,38.823529%,100%);fill-opacity:1;" d="M 1419.589844 686.839844 C 1412.199219 689.785156 1384.039062 687.753906 1384.039062 687.753906 C 1384.039062 687.753906 1398.71875 668.617188 1406.09375 665.671875 C 1410.90625 663.539062 1416.800781 663.671875 1421.453125 666.007812 C 1426.105469 668.347656 1428.765625 672.519531 1428.375 676.871094 C 1427.984375 681.222656 1424.613281 685.054688 1419.589844 686.851562 Z M 1419.589844 686.839844 "/>
<path style=" stroke:none;fill-rule:nonzero;fill:rgb(42.352941%,38.823529%,100%);fill-opacity:1;" d="M 1405.4375 733.605469 C 1398.777344 737.496094 1370.585938 739.253906 1370.585938 739.253906 C 1370.585938 739.253906 1380.964844 718.429688 1387.621094 714.535156 C 1391.902344 711.765625 1397.765625 711.085938 1402.871094 712.765625 C 1407.980469 714.449219 1411.503906 718.21875 1412.039062 722.578125 C 1412.574219 726.933594 1410.035156 731.171875 1405.4375 733.605469 Z M 1405.4375 733.605469 "/>
<path style=" stroke:none;fill-rule:nonzero;fill:rgb(42.352941%,38.823529%,100%);fill-opacity:1;" d="M 1359.117188 641.121094 C 1365.113281 645.679688 1392.691406 650.414062 1392.691406 650.414062 C 1392.691406 650.414062 1385.925781 628.675781 1379.988281 624.117188 C 1376.222656 620.890625 1370.511719 619.570312 1365.144531 620.691406 C 1359.777344 621.8125 1355.632812 625.191406 1354.367188 629.46875 C 1353.105469 633.75 1354.929688 638.230469 1359.117188 641.121094 Z M 1359.117188 641.121094 "/>
<path style=" stroke:none;fill-rule:nonzero;fill:rgb(42.352941%,38.823529%,100%);fill-opacity:1;" d="M 1343.445312 695.957031 C 1350.835938 698.902344 1379 696.871094 1379 696.871094 C 1379 696.871094 1364.320312 677.734375 1356.941406 674.789062 C 1352.132812 672.660156 1346.234375 672.789062 1341.582031 675.128906 C 1336.929688 677.464844 1334.273438 681.636719 1334.660156 685.988281 C 1335.050781 690.339844 1338.421875 694.171875 1343.445312 695.96875 Z M 1343.445312 695.957031 "/>
<path style=" stroke:none;fill-rule:nonzero;fill:rgb(42.352941%,38.823529%,100%);fill-opacity:1;" d="M 1337.433594 750.925781 C 1344.089844 754.820312 1372.28125 756.578125 1372.28125 756.578125 C 1372.28125 756.578125 1361.90625 735.753906 1355.246094 731.859375 C 1348.59375 728.34375 1339.625 729.582031 1334.867188 734.675781 C 1330.113281 739.765625 1331.238281 746.917969 1337.433594 750.925781 Z M 1337.433594 750.925781 "/>
<path style=" stroke:none;fill-rule:nonzero;fill:rgb(42.352941%,38.823529%,100%);fill-opacity:1;" d="M 111.894531 600.601562 C 111.894531 600.601562 174.636719 650.273438 139.214844 723.976562 C 103.796875 797.675781 199.976562 920.246094 199.976562 920.246094 C 199.976562 920.246094 198.941406 920.125 196.976562 919.867188 C 68.125 901.855469 4.109375 785.1875 75.757812 698.507812 C 102.402344 666.277344 124.265625 628.476562 111.894531 600.601562 Z M 111.894531 600.601562 "/>
<use xlink:href="#surface86" mask="url(#mask27)"/>
<path style="fill:none;stroke-width:1;stroke-linecap:butt;stroke-linejoin:miter;stroke:rgb(32.54902%,32.941176%,38.039216%);stroke-opacity:1;stroke-miterlimit:10;" d="M 141.259666 517.871316 C 141.259666 517.871316 164.879023 569.150087 141.259666 610.98909 C 117.640308 652.831382 137.261021 770.241178 199.970715 787.110364 " transform="matrix(1.499531,0,0,1.187215,-99.928772,-14.222831)"/>
<path style=" stroke:none;fill-rule:nonzero;fill:rgb(42.352941%,38.823529%,100%);fill-opacity:1;" d="M 0.164062 801.488281 C 0.164062 801.488281 71.753906 792.464844 78.277344 843.253906 C 84.796875 894.042969 215.933594 901.121094 215.933594 901.121094 L 213.472656 902.390625 C 105.207031 958.664062 1.695312 938.230469 17.304688 863.507812 C 23.03125 835.738281 22.628906 807.839844 0.164062 801.488281 Z M 0.164062 801.488281 "/>
<path style="fill:none;stroke-width:1;stroke-linecap:butt;stroke-linejoin:miter;stroke:rgb(32.54902%,32.941176%,38.039216%);stroke-opacity:1;stroke-miterlimit:10;" d="M 66.749409 687.079745 C 66.749409 687.079745 103.810466 695.209988 100.749614 728.908876 C 97.688762 762.611055 155.790247 802.99905 210.640715 771.001229 " transform="matrix(1.499531,0,0,1.187215,-99.928772,-14.222831)"/>
<path style=" stroke:none;fill-rule:nonzero;fill:rgb(65.882353%,65.882353%,65.882353%);fill-opacity:1;" d="M 1317.308594 772.664062 C 1317.308594 772.664062 1350.914062 771.84375 1361.035156 766.132812 C 1371.15625 760.421875 1412.722656 753.609375 1415.226562 762.761719 C 1417.730469 771.914062 1465.71875 808.292969 1427.792969 808.539062 C 1389.871094 808.789062 1339.652344 803.863281 1329.542969 799.042969 C 1319.4375 794.222656 1317.308594 772.664062 1317.308594 772.664062 Z M 1317.308594 772.664062 "/>
<use xlink:href="#surface89" mask="url(#mask28)"/>
<path style=" stroke:none;fill-rule:nonzero;fill:rgb(65.882353%,65.882353%,65.882353%);fill-opacity:1;" d="M 271.445312 905.324219 C 271.445312 905.324219 215.046875 896.371094 199.976562 884.5 C 184.90625 872.625 117.277344 851.765625 109.765625 866.691406 C 102.253906 881.613281 8.308594 932.105469 72.21875 941.035156 C 136.128906 949.960938 222.574219 952.90625 241.363281 946.96875 C 260.152344 941.035156 271.445312 905.324219 271.445312 905.324219 Z M 271.445312 905.324219 "/>
<use xlink:href="#surface92" mask="url(#mask29)"/>
</g>
</svg>
